<?xml version="1.0" standalone="no"?>
<!DOCTYPE svg PUBLIC "-//W3C//DTD SVG 20010904//EN"
 "http://www.w3.org/TR/2001/REC-SVG-20010904/DTD/svg10.dtd">
<svg version="1.0" xmlns="http://www.w3.org/2000/svg"
 width="194.000000pt" height="99.000000pt" viewBox="0 0 194.000000 99.000000"
 preserveAspectRatio="xMidYMid meet">

<g transform="translate(0.000000,99.000000) scale(0.100000,-0.100000)"
fill="#000000" stroke="none">
<path d="M1643 907 c-45 -18 -91 -42 -102 -54 -11 -11 -37 -27 -58 -33 -58
-19 -147 -66 -164 -86 -9 -11 -9 -15 -1 -10 6 4 12 2 12 -3 0 -6 -5 -11 -12
-11 -6 0 -9 -2 -6 -5 6 -6 65 23 74 36 3 6 45 30 93 53 101 50 270 146 256
145 -5 0 -47 -15 -92 -32z"/>
<path d="M1094 917 c-46 -27 -144 -126 -144 -146 0 -8 9 -3 20 12 11 14 50 53
87 86 36 34 64 61 62 61 -2 -1 -13 -6 -25 -13z"/>
<path d="M1295 913 c-16 -9 -34 -22 -40 -29 -5 -7 -31 -24 -57 -38 -26 -14
-60 -39 -77 -56 -16 -18 -34 -29 -39 -26 -5 3 -12 -8 -16 -24 -5 -27 -9 -30
-33 -24 -26 6 -27 5 -9 -8 14 -11 16 -17 7 -23 -7 -4 -18 -2 -24 4 -6 6 -17
11 -25 11 -18 0 -45 28 -38 39 9 14 -14 19 -71 13 -62 -6 -67 2 -17 23 19 8
33 19 29 25 -8 13 -35 13 -35 0 0 -5 -13 -10 -30 -10 -16 0 -30 5 -30 10 0 7
-7 7 -21 0 -11 -7 -27 -9 -35 -6 -7 3 -18 -3 -23 -13 -9 -16 -6 -18 27 -15 36
3 72 -9 61 -20 -3 -4 -25 -7 -48 -8 -23 -1 -44 -5 -46 -9 -8 -12 25 -19 53
-13 l27 7 -25 -22 -25 -21 28 6 c44 10 31 -12 -15 -26 -24 -7 -55 -21 -70 -31
-19 -14 -27 -16 -31 -7 -2 7 -10 0 -18 -17 -7 -16 -19 -38 -28 -48 -8 -9 -11
-20 -6 -25 4 -4 10 -1 13 7 16 45 79 68 89 32 4 -17 7 -16 35 9 17 16 40 31
52 34 20 5 21 5 2 -9 -11 -8 -22 -15 -25 -15 -3 0 -14 -12 -24 -26 -18 -24
-18 -26 -1 -45 9 -10 23 -19 29 -19 12 0 25 -21 25 -39 0 -5 -12 -21 -28 -37
-20 -22 -35 -28 -57 -26 -36 5 -62 -23 -42 -46 9 -12 9 -16 0 -19 -18 -6 -16
-52 1 -59 8 -3 24 -1 35 5 13 8 22 8 26 1 12 -19 24 0 19 28 -4 20 0 30 17 40
21 13 21 12 17 -27 -3 -39 -2 -41 23 -41 23 0 26 3 22 23 -5 21 -5 21 12 5 10
-9 15 -23 12 -31 -7 -19 -111 -47 -176 -47 -29 0 -80 -7 -113 -16 -80 -20
-119 -13 -214 43 -44 25 -85 46 -91 46 -7 0 -13 3 -13 7 0 3 -20 20 -45 38
-25 17 -45 28 -45 24 0 -4 9 -13 20 -20 12 -7 20 -18 19 -25 -1 -7 -1 -19 0
-27 1 -13 2 -13 11 0 8 12 10 12 16 -3 3 -9 17 -17 29 -17 17 0 25 -7 27 -22
3 -22 19 -28 74 -29 54 -2 61 -14 26 -43 -17 -15 -36 -44 -44 -66 -7 -22 -17
-41 -23 -42 -5 -2 -14 30 -18 70 -11 88 -26 95 -23 9 3 -95 8 -100 91 -87 37
6 86 8 109 5 31 -5 64 1 136 25 52 17 97 33 99 36 2 2 -47 2 -110 0 -94 -3
-109 -1 -86 8 15 7 25 15 21 19 -4 3 7 2 25 -3 19 -5 33 -5 37 2 3 5 17 7 30
4 13 -4 44 -2 69 4 25 6 85 12 133 14 53 2 103 10 127 20 22 10 68 26 103 37
34 11 62 24 62 29 0 6 9 10 19 10 18 0 36 25 32 43 -1 5 3 6 9 2 8 -5 8 -11 0
-20 -6 -7 -10 -17 -9 -21 1 -5 -1 -17 -5 -26 -18 -42 18 -63 75 -44 33 11 34
13 36 63 1 29 -3 53 -8 53 -5 0 -9 7 -9 16 0 12 3 14 13 6 6 -6 16 -10 20 -10
5 0 11 -3 15 -6 3 -3 0 -6 -6 -6 -7 0 -12 -11 -12 -25 0 -18 25 -52 86 -118
48 -50 96 -99 107 -106 31 -22 -57 100 -110 152 -35 35 -41 46 -29 50 11 4 16
1 16 -10 0 -15 2 -15 14 -3 9 11 11 31 7 70 -6 53 -7 55 -38 58 -24 2 -34 -2
-42 -17 -11 -20 -41 -19 -41 1 0 5 5 6 10 3 6 -3 10 -1 10 5 0 6 -6 10 -12 9
-28 -3 -49 1 -44 10 3 5 -9 14 -27 21 -68 25 -82 33 -69 37 7 3 26 0 42 -6 26
-9 30 -8 30 8 0 9 5 22 12 29 9 9 8 12 -5 12 -25 0 -21 10 21 54 25 27 31 37
17 31 -21 -8 -121 -17 -114 -11 11 11 144 56 181 61 l43 5 -26 -22 c-30 -26
-69 -97 -69 -125 0 -10 9 1 20 25 10 23 23 42 27 42 5 0 30 18 57 40 26 22 56
40 65 40 9 0 46 15 82 34 36 18 105 44 153 56 47 13 85 25 83 27 -6 6 -126
-24 -207 -52 -72 -25 -234 -57 -294 -59 -21 -1 -30 4 -32 19 -3 16 11 27 74
57 102 48 138 76 62 48 -30 -12 -83 -34 -116 -50 -63 -31 -90 -37 -79 -20 4 6
-7 10 -24 10 -17 0 -31 2 -31 5 0 10 115 115 125 115 8 0 103 66 124 86 10 10
-17 2 -44 -13z m-155 -218 c10 -12 7 -15 -17 -20 -15 -3 -59 -22 -98 -41 -44
-21 -61 -27 -45 -14 14 11 37 32 51 46 22 21 60 39 90 43 4 1 12 -6 19 -14z
m-120 -145 c0 -25 4 -29 22 -27 17 1 22 -3 22 -23 0 -46 -15 -80 -35 -80 -10
0 -19 -4 -19 -9 0 -13 -60 18 -61 32 -9 79 -8 87 13 84 13 -1 22 4 24 16 8 55
34 59 34 7z m-137 -87 c7 -32 -19 -75 -46 -79 -13 -2 -17 6 -17 36 0 21 -5 41
-10 43 -6 3 -5 4 2 3 7 -1 19 3 26 11 21 21 39 15 45 -14z m252 -43 c23 -26 8
-26 -25 0 -18 14 -21 20 -9 20 9 0 24 -9 34 -20z m41 -34 c-25 -26 -36 -24
-13 2 13 15 14 21 4 31 -10 11 -8 11 9 1 l21 -13 -21 -21z m-261 2 c4 4 3 -3
-4 -15 -6 -12 -16 -25 -22 -29 -6 -3 -7 -9 -2 -13 5 -3 16 -17 25 -31 15 -24
15 -26 -3 -26 -10 0 -16 2 -14 4 2 2 -7 16 -20 30 -24 26 -24 27 -6 47 10 11
16 27 13 35 -4 12 -3 13 10 3 8 -7 18 -9 23 -5z m76 -5 c13 -16 12 -17 -3 -4
-10 7 -18 15 -18 17 0 8 8 3 21 -13z m89 13 c0 -3 -4 -8 -10 -11 -5 -3 -10 -1
-10 4 0 6 5 11 10 11 6 0 10 -2 10 -4z m59 -30 c-3 -3 -11 5 -18 17 -13 21
-12 21 5 5 10 -10 16 -20 13 -22z m77 12 c4 -6 3 -8 -4 -4 -6 3 -13 -2 -15
-11 -4 -14 -5 -13 -6 5 -1 23 13 30 25 10z m-269 -13 c0 -8 -4 -15 -9 -15 -10
0 -11 14 -1 23 9 10 10 9 10 -8z m393 -5 c0 -11 -7 -20 -15 -20 -17 0 -18 2
-9 24 9 23 24 20 24 -4z m-335 -20 c-3 -5 -16 -10 -28 -9 -20 1 -20 2 3 9 14
4 26 8 28 9 2 1 0 -3 -3 -9z m62 -27 c-3 -10 -5 -4 -5 12 0 17 2 24 5 18 2 -7
2 -21 0 -30z m70 15 c-3 -8 -6 -5 -6 6 -1 11 2 17 5 13 3 -3 4 -12 1 -19z
m203 -13 c0 -8 -2 -15 -4 -15 -2 0 -6 7 -10 15 -3 8 -1 15 4 15 6 0 10 -7 10
-15z m-105 -5 c4 -6 -6 -10 -22 -10 -22 0 -25 2 -13 10 19 12 27 12 35 0z
m-225 -4 c0 -2 2 -11 5 -18 4 -9 -2 -14 -14 -14 -14 0 -17 4 -10 12 7 8 6 14
-3 17 -8 4 -7 6 5 6 9 1 17 -1 17 -3z m80 -26 c0 -5 -4 -10 -10 -10 -5 0 -10
5 -10 10 0 6 5 10 10 10 6 0 10 -4 10 -10z m148 -22 c15 -15 -3 -38 -29 -38
-22 0 -33 16 -25 35 7 18 37 20 54 3z"/>
<path d="M920 810 c-13 -8 -12 -10 3 -10 9 0 17 5 17 10 0 12 -1 12 -20 0z"/>
<path d="M1052 795 c-57 -26 -105 -64 -65 -51 12 4 24 2 27 -3 8 -12 36 -3 36
10 0 5 -7 9 -16 9 -8 0 -12 5 -9 10 3 6 14 10 23 10 9 0 28 9 42 20 32 25 27
24 -38 -5z"/>
<path d="M1793 799 c-18 -5 -35 -14 -39 -20 -7 -12 8 -8 76 17 41 15 12 17
-37 3z"/>
<path d="M1400 700 c-18 -12 -2 -12 25 0 13 6 15 9 5 9 -8 0 -22 -4 -30 -9z"/>
<path d="M257 576 c-3 -8 1 -17 9 -20 12 -4 1 -20 -41 -59 -44 -43 -61 -53
-80 -49 -19 3 -25 0 -26 -14 0 -16 -2 -15 -9 4 -12 29 -22 28 -18 -2 2 -15 -6
-34 -18 -48 -17 -18 -20 -28 -13 -46 9 -24 29 -22 29 2 0 8 7 20 17 27 17 14
16 12 -6 -33 -8 -15 -10 -35 -6 -45 5 -14 11 -5 27 37 11 30 24 59 29 65 13
14 11 27 -3 19 -8 -4 -10 -3 -5 2 5 5 12 9 15 9 4 0 13 4 20 8 8 5 12 3 12 -7
0 -9 7 -16 15 -16 9 0 12 6 9 15 -6 15 11 45 26 45 20 0 18 -35 -5 -67 -13
-20 -22 -41 -18 -46 3 -5 9 -3 14 4 7 11 9 10 9 -4 0 -10 5 -15 10 -12 6 3 10
1 10 -5 0 -12 91 -72 98 -65 3 2 -1 11 -8 20 -7 9 -10 18 -7 21 3 3 -1 27 -8
52 -18 60 -13 64 14 10 l22 -43 -2 40 c-3 50 -27 95 -52 95 -10 0 -15 5 -12
10 3 6 -1 10 -9 10 -12 0 -14 5 -7 23 5 13 7 35 4 50 -6 29 -27 36 -36 13z"/>
<path d="M553 545 c-9 -19 -20 -35 -25 -35 -4 0 -8 -7 -8 -16 0 -22 53 43 55
67 2 27 -3 23 -22 -16z"/>
<path d="M1661 533 c1 -34 17 -79 18 -51 1 10 10 22 20 28 22 11 131 14 130 3
0 -5 -24 -37 -54 -73 l-54 -65 34 -6 c79 -14 121 -82 91 -153 -39 -92 -163
-66 -159 34 2 40 -10 53 -21 24 -16 -43 5 -99 45 -120 89 -46 189 27 189 138
0 53 -29 97 -80 118 l-30 12 50 63 c28 35 50 66 50 69 0 3 -52 6 -115 6 l-115
0 1 -27z"/>
<path d="M300 514 c0 -8 5 -12 10 -9 6 4 8 11 5 16 -9 14 -15 11 -15 -7z"/>
<path d="M370 465 c8 -10 11 -45 8 -112 -3 -87 -1 -98 15 -101 9 -2 17 1 17 6
0 5 17 12 38 15 77 13 115 73 93 149 -14 47 -38 58 -123 58 -52 0 -59 -2 -48
-15z m121 -27 c30 -56 2 -148 -46 -148 -25 0 -25 1 -25 85 l0 85 30 0 c20 0
33 -7 41 -22z"/>
<path d="M1579 450 c-11 -6 -15 -18 -12 -34 4 -21 1 -25 -23 -28 -35 -4 -60
-43 -51 -81 8 -29 41 -44 62 -27 10 8 14 8 17 -1 3 -8 9 -9 19 -3 11 7 13 27
9 96 -4 76 -7 86 -21 78z m-14 -115 c0 -46 -21 -58 -35 -20 -7 18 -7 33 1 46
16 31 34 17 34 -26z"/>
<path d="M581 391 c-8 -5 -14 -29 -15 -60 -1 -45 1 -51 19 -51 17 0 20 7 20
42 0 35 3 42 18 40 10 -2 17 3 17 12 0 19 -17 29 -26 15 -4 -8 -9 -8 -13 -1
-4 6 -12 7 -20 3z"/>
<path d="M1467 393 c-4 -3 -17 -6 -29 -7 -20 -1 -24 -8 -28 -53 l-6 -53 31 0
c20 0 26 3 17 9 -8 5 -12 22 -10 42 3 29 6 34 26 31 14 -2 22 2 22 12 0 17
-14 29 -23 19z"/>
<path d="M47 287 c-6 -38 3 -59 14 -31 6 15 8 13 8 -11 1 -25 49 -95 66 -95 2
0 -3 16 -11 35 -7 19 -14 45 -14 58 0 26 -22 52 -33 40 -4 -3 -7 1 -7 10 0 31
-18 26 -23 -6z"/>
<path d="M626 273 c-6 -14 -5 -15 5 -6 7 7 10 15 7 18 -3 3 -9 -2 -12 -12z"/>
<path d="M450 230 c-13 -8 -12 -10 3 -10 9 0 17 5 17 10 0 12 -1 12 -20 0z"/>
</g>
</svg>
